<?xml version="1.0" encoding="UTF-8"?>
<svg id="Layer_1" data-name="Layer 1" xmlns="http://www.w3.org/2000/svg" viewBox="0 0 715.89 715.89">
  <defs>
    <style>
      .cls-1, .cls-2, .cls-3 {
        stroke: #000;
        stroke-miterlimit: 10;
        stroke-width: 6px;
      }

      .cls-1, .cls-4, .cls-5 {
        fill: #fff;
      }

      .cls-6 {
        letter-spacing: -.17em;
      }

      .cls-2 {
        fill: none;
      }

      .cls-7 {
        letter-spacing: -.01em;
      }

      .cls-8 {
        letter-spacing: -.03em;
      }

      .cls-9 {
        letter-spacing: 0em;
      }

      .cls-4 {
        font-size: 424.16px;
        letter-spacing: -.01em;
      }

      .cls-4, .cls-5 {
        font-family: CondorWide-BoldItalic, CondorWide;
        font-style: italic;
        font-weight: 700;
      }

      .cls-10 {
        letter-spacing: -.05em;
      }

      .cls-5 {
        font-size: 55px;
      }
    </style>
  </defs>
  <circle class="cls-1" cx="357.94" cy="357.94" r="354.94"/>
  <circle class="cls-3" cx="357.94" cy="357.94" r="313.61"/>
  <text class="cls-4" transform="translate(103.93 440.2)"><tspan x="0" y="0">T</tspan></text>
  <text class="cls-4" transform="translate(610.88 173.74) rotate(-180)"><tspan x="0" y="0">T</tspan></text>
  <circle class="cls-2" cx="357.47" cy="357.65" r="337"/>
  <path d="m311.62,139.36c5.25-.63,10.68-2.59,14.95-3.99.24-3.1,1.68-8.19,3.91-10.09,1.28-3.02,5.66-5.8,7.97-8.73,6.53-3.65,20.92-1.47,26.8,3.15,5.01,2.47,14.45,14.66,7.84,19.34l6.7,4.95c-5.63-1.09-9.29,1.61-9.29,1.61,0,0-1.3,1.65,2.13,3.81-5.19,2.02-5.33,1.66-9.41-1.61-1.44,5.09-7.34,5.14-10.66,1.07,2.53,7.48-4.4,16.3-10.85,18.91-12.89,5.23-5.55-8.76-15.65-12.67,1.28-3.02.41-5.17.57-7.24-7.22.86-16.61-1.34-15.01-8.5Zm52.96,41.65l-.08,1.03c-1.12.95-1.2,1.99-1.28,3.02l.87,2.15c6.28-.55,10.74-4.36,16.78-1.8,6.04,2.56,7.38,12.02,12.63,11.4.24-3.1,5.13-27.75,4.47-19.41-.13,1.66-.68,17.5-2.04,21.55,13.26,3.98,25.89,9.48,40.91,12.19-1.82-3.26-3.19-9.09-5.09-11.32-4.44-9.71-11.29-16.75-18.12-22.49-6.75-6.77-11.32-13.11-18.15-18.85-19.86-11.96-29.6,5.99-30.9,22.53Zm-76.4,72c3.97,2.39,9.22,1.77,14.39,2.17.83-1.95,1.3-5.36,2.41-7.65.93-.46,1.66-1.24,2.04-2.22.16-.06.32-.11.49-.14,1.45-.22,1.9,2.23,1.74,4.3,5.25-.63,5.66-5.8,8.92-7.62,2.31-2.94,5.58-4.76,8.84-6.59,7.56-3.57,16.08-6.02,23.56-8.55,7.48-2.53,17.03-4.9,24.59-8.47,5.41-2.69,11.88-18.83,14.98-18.58,0,0-5.3-11.06-9.73-12.9-4.44-1.84-7.48.28-16.47,2.17-2.31,2.94-3.86,9.4-5.22,13.46-7.32.46-16.24,8.08-21.73,11.81-6.61,4.68-14.25,9.28-18.71,13.09-4.92-3.51-8.27-.65-13.6,1.01-.08,1.03.95,1.12.87,2.15-6.53,3.65-13.14,8.33-18.71,13.09,1.9,2.23,2.61,6.45,1.34,9.47Zm47.11-17.1l-1.52,6.12c-2.31,2.94-8.26,1.43-10.57,4.37-6.53,3.65-11.4,10.54-17.93,14.19-1.82-3.26-6.64-1.48-9.99,1.38,3.89,3.43,7.1,6.45,10.95,10.4,9.91-4.77,23.25-8.83,34-13.19,7.56-3.57,6.34-7.82,9.93-13.78,3.59-5.96,10.41-13.31,10.9-19.51-6.47,2.87-23.2,3.98-25.75,10.02Zm41.76-87.86c-3.26,3.38-20.86,7.33-20.86,7.33.71,4.22-1.6,7.15-4,11.13-8.22,8.63-13.06,7.29-14.42,11.35-1.2,1.99,6.06,4.86,7.09,9.01,1.88,7.56,1.14,11.92-7.81,18.24,13.36,2.09,21.37-12.1,23.21-22.36.57-7.24,2.9-19.58,9.23-24.76,4.49-3.68,9.96-6.5,16.4-5.73.53-.12-3.31-3.27-3.3-3.77.04-2.16-.59-3.11-1.65-3.04-.98.06-2.34.98-3.9,2.61Zm11.29,58.14s52.67,12.55,56.54,16.15c2.41-1.98-.78-5.52-.78-5.52l-52.12-16.15-3.64,5.52Zm-1.13,2.25c-2.54.9-2.63,5.38-4.72,7.17-6.69,5.71-8.69,6.86-18.16,8.19-.24,3.1.99,2.85.99,2.85,1.03.08,8.67,5.54,8.67,5.54,1.48,4.77,8.45,15.33,11.98,20.71,0,0,0,0,0,0l1.06,1.61s.04.06.05.08h0s2.78,1.65,2.78,1.65c0,0,34.59-13.92,54.62-13.86-3.37,1.22-6.67,2.74-9.08,3.49-8.42,3.41-27.11,7.45-37,9.63-.02,0-.05-.01-.07-.02l-.54.15-7.92,2.25c-8.84,6.59-27.47,18.27-34.37,25.38,12.24,3.04,26.9,27.63,25.97,35.07-.09.74,2.09,2.55,2.65,2.32,9.88-4.15,16.44-8.12,26.6-12.24,9.63-3.4,20.73-7.9,30.28-10.27,11.7-3.24,16.57-4.76,17.64-19.24.26-3.49.76-7.32.75-10.86.61-7.74.17-16.71-1.32-22.13.2-3.93-10.77-21.12-10.77-21.12-14.31-3.21-37.65-10.58-50.93-13.7-3.77-.79-7.63-3.18-9.15-2.64Zm-69.61,210.7c-3.34,42.45-40.46,74.15-82.91,70.81-42.45-3.34-74.15-40.46-70.81-82.91,3.34-42.45,40.46-74.15,82.91-70.81,8.07.63,15.74,2.5,22.87,5.38l10.24-26.33,7.92,5.04-10.46,24.93c26.01,14.06,42.7,42.51,40.23,73.89Zm-16.02-1.26c1.91-24.28-10.66-46.35-30.46-57.73l-17.87,42.59c2.6,3.14,4.03,7.24,3.69,11.62-.7,8.93-8.54,15.62-17.47,14.92s-15.62-8.54-14.92-17.47c.7-8.93,8.54-15.62,17.47-14.92,1.98.16,3.85.68,5.56,1.48l16.26-41.78c-5.7-2.33-11.84-3.83-18.3-4.34-33.6-2.64-62.98,22.45-65.63,56.05-2.64,33.6,22.45,62.98,56.05,65.63,33.6,2.64,62.98-22.45,65.63-56.05Zm-54.46,3.42c-.03.36-.13.7-.29,1.01,1.54-1.02,2.82-2.41,3.7-4.07-.48.31-1.06.48-1.68.43-1.31-.1-2.33-1.12-2.49-2.37-.47.82-1.11,1.53-1.87,2.07.04,0,.08,0,.12,0,1.5.12,2.62,1.43,2.5,2.93Zm-5.97-16.63c.09-1.14.88-2.07,1.92-2.38-.47-.1-.96-.18-1.45-.22-1.01-.08-2,0-2.95.18,1.13.4,1.91,1.52,1.81,2.77-.05.67-.35,1.26-.79,1.7.51-.08,1.04-.12,1.58-.08.2.02.4.04.6.08-.49-.54-.76-1.26-.7-2.04Zm-3.64,18.99c.76.23,1.55.39,2.37.46,1.35.11,2.66-.05,3.89-.4-1.27-.31-2.18-1.5-2.07-2.85.04-.56.26-1.07.59-1.48-.65.16-1.34.22-2.05.17-.4-.03-.79-.1-1.16-.2.4.52.63,1.18.57,1.88-.1,1.22-1,2.18-2.14,2.43Zm8.59-14.21c.13-1.48,1.44-2.59,2.92-2.47.43.03.81.17,1.16.38-.98-1.61-2.36-2.95-4.01-3.89.29.47.44,1.03.4,1.63-.1,1.32-1.14,2.35-2.41,2.49.77.48,1.44,1.12,1.94,1.87Zm5.53,5.6c.06-.36.11-.72.14-1.09.1-1.25-.03-2.47-.32-3.62-.31,1.27-1.5,2.17-2.85,2.07-.58-.05-1.09-.27-1.51-.61.12.58.16,1.18.11,1.8-.01.15-.04.3-.06.45.54-.55,1.31-.87,2.13-.8,1.1.09,2,.83,2.35,1.81Zm-17.41,5.75c.11-1.41,1.29-2.48,2.69-2.49-.71-.53-1.31-1.19-1.76-1.95-.15,1.46-1.44,2.55-2.92,2.44-.44-.03-.83-.18-1.18-.39.83,1.52,2.02,2.82,3.45,3.81-.21-.42-.32-.9-.28-1.41Zm.82-16.22c.03-.44.18-.83.39-1.18-1.4.77-2.61,1.83-3.56,3.11.41-.19.87-.29,1.35-.26,1.44.11,2.51,1.33,2.5,2.75.49-.6,1.09-1.11,1.76-1.51-1.46-.15-2.55-1.44-2.44-2.92Zm-4.72,4.82c-.32.89-.53,1.83-.61,2.82s0,2,.18,2.95c.4-1.13,1.52-1.91,2.77-1.81.67.05,1.25.35,1.7.79-.09-.51-.12-1.04-.08-1.58.04-.48.13-.94.27-1.38-.5.34-1.11.54-1.75.49-1.27-.1-2.27-1.07-2.47-2.28Zm305.06,12.6c-3.14,39.83-37.16,69.65-75.99,66.59-25.7-2.02-47.05-17.94-57.66-40.01-18.54-4.91-30.3-11.04-35.72-14.3l.09-.16c-6.37-2.94-10.66-8.88-10.71-15.52l-16.18-1.27.45-5.69,16.76,1.32c.19-.51.41-1,.65-1.48-5.95-.29-11.78-.45-18.03-.79-4.5-.25-13.62-3.22-15.45-5.29-2.8-3.18,3.66-5.17,11.49-6.63,5.1-.95,6.18-3.16,11.51-4.82l1.54-4.13c-1.03-.08-1.99-1.2-3.02-1.28,3.1.24,4.3-1.74,6.45-2.61.08-1.03-.87-2.15-.79-3.18l7.24.57c.29-3.68-.63-5.25-.38-8.35.08-1.03-.5-1.08-.42-2.11l.58.05c6.72.53,15.48,1.54,16.9,1.66s-1,7.79.74,12.09c5.04,1.43,6.03,2.49,6.73,6.62l2.33-8.9-1.33-3.48,3.14-3.4,1.1-4.17-5.16,6.03-6.15-7.77c-2.57-6.96.56-27,.56-27l12.8,20.87,4.62-17.61s-7.52-3.75-18.03-8.98c-.99,10.67-2.49,12.7-2.36,23.52l.79,9.77c-8.09-1.32-13.97-.32-17.52-2.03-.28-3.01-2.15-7.35-3.21-12.08-2.29-10.58-6.73-16.91-9.09-29.84-.34-1.87-.79-3.73-1.28-5.56-.53-.26-1.06-.53-1.59-.79.54,2.17.97,4.31,1.15,6.13.72,7.19,7.1,24.31,7.1,24.31,0,0-17.42-16.54-17.96-18.49s-6.34-6.72-5.6-9.89c.32-1.37,2.48-4.32,4.83-7.23-10.95-5.4-19.25-9.44-20.33-9.85-3.54-1.32-3.52,1.8-3.52,1.8l48.91,69.12-7.68,5.12-49.64-69.7s-2-1.02-2.89,1.51-2.5,5.35-2.5,5.35l-16.74-9.81,14.55-26.25,14.86,7.24-1.07,2.52,32.33,15.62c.13-.15.21-.23.21-.23,0,0,.06.15.15.4l1.9.92c-2.8-10.66-2.74-19.68,13.42-25.24,11.69,5.99,17.21,15.11,24.26,27.34.18.32-.1.92-.43.89-2.89-.23-6.22-.49-9-.71,1.34,7.05,4,10.25,5.92,14.23l22.11,10.68,1.46-7.6,9.73,1.94-10.07,40.46c2.56,2.14,5.73,4.87,6.67,6.04.23.29.51.57.8.85,3.25-5.51,7.18-10.53,11.67-14.94-7.1-9.8-12.19-17.04-12.19-17.04l3.42-6.02c2.58,2.07,9.07,8.49,16.74,16.3,13.03-9.51,29.24-14.59,46.4-13.23,38.83,3.06,67.77,37.83,64.64,77.66Zm-122.73-69.93c.74,1.33,3.32,4.79,6.86,9.35.42-.37.86-.72,1.29-1.08-4.1-4.32-7.16-7.45-8.16-8.27Zm41.23,61.63l5.27.26c1.32-4.7,5.81-7.97,10.86-7.58,5.74.45,10.03,5.48,9.58,11.22s-5.48,10.03-11.22,9.58c-4.59-.36-8.24-3.64-9.3-7.87l-5.3-.05c1.12,6.96,6.86,12.53,14.19,13.11,8.59.68,16.13-5.76,16.81-14.36s-5.76-16.13-14.36-16.81c-7.96-.63-15.01,4.86-16.54,12.5Zm-10.65,32.14c1.9.15,3.35-.78,3.77-6.12s3.08-3.92,7.48-6.87c.31-.21.62-.36.94-.5-3.76-3.33-6.3-7.98-6.9-13.15l-39.26-.4c.41,11.72,4.3,22.64,10.71,31.6,5.57.95,11.58,1.76,18.02,2.36-.43-1.37-.14-2.97.22-3.94.76-2.03,3.11-3.14,5-2.99Zm-33.77-34.32s0,.01,0,.02l39.2,1.92c.29-1.78.8-3.46,1.5-5.05-.72-.83-1.47-1.71-2.25-2.64l-32.91-2.13c-1.05,1.33-2.15,2.88-3.28,4.75-.62,1.02-1.38,2.07-2.26,3.13Zm47.84-11.8c-3.38-3.7-15.48-16.89-26.29-28.5-.77.61-1.52,1.24-2.25,1.89,9.13,11.4,19.64,24.23,24.58,30.24,1.17-1.37,2.49-2.6,3.96-3.63Zm-39.61-13.37c3.84,1.85,6.88,3.68,6.71,5.83-.28,3.61-3.45,4.77-7.73,9.49l29.42,1.9c-6.27-7.63-13.85-17.63-20.84-27.09-2.85,2.98-5.39,6.29-7.56,9.87Zm-37.94,15.82c2.95.76,5.6,2.13,7.79,3.92l1.2-3.59-3.1-.24.35-3.12-4.91-1.79,1.04-3.95c-2.48,1.74-2.64,5.31-2.37,8.77Zm-6.08,29.7c2,.16,3.93-.04,5.73-.51l-1.18-.86,1.14-2.5c-1.2-.49-2-1.7-1.89-3.06.13-1.69,1.61-2.95,3.3-2.82.41.03.79.15,1.14.32l.71-1.56,2.1-6.3c-.61.81-1.6,1.3-2.68,1.21-1.69-.13-2.95-1.61-2.82-3.3s1.61-2.95,3.3-2.82,2.82,1.48,2.81,3.07l.79-2.38c-1.59-1.61-3.61-2.9-5.92-3.72.19,2.13.16,3.75-.82,4.1-.79.29-1.59.51-2.39.7-.47,1.25-1.71,2.1-3.1,1.99-.94-.07-1.73-.57-2.24-1.27-.84.04-1.68.05-2.51.03-.57,1-1.68,1.64-2.9,1.55s-2.14-.85-2.58-1.88c-.65-.04-1.3-.09-1.95-.13-1.22,1.71-1.99,3.7-2.16,5.85-.57,7.22,5.76,13.63,14.11,14.29Zm26.93,14.26c-2.97-6.81-4.91-14.16-5.69-21.82-.89.64-1.77,1.26-2.62,1.86-3.22,6.31-10.57,10.43-18.78,9.85,6.1,3.04,15.09,6.82,27.09,10.12Zm120.12-25.28c2.48-31.53-20.42-59.05-51.16-61.47-12.69-1-24.72,2.45-34.66,9.04,12.33,12.76,24.59,25.72,27.45,28.74.58-.2,1.16-.37,1.76-.52l.43-5.45,3.62.28-.2,2.58,1.5-.1s-.15-6.72,2.46-6.48c2.79.25,1.42,8.93,1.57,8.96,10.09,2.11,17.3,11.46,16.47,22-.9,11.44-10.94,20.02-22.38,19.12-.27-.02-.52-.07-.78-.1-2.27,1-6.76,2.04-10.89,2.33-8.72.61-2.51,7.91-5.93,7.59-3.42-.31.96,6.26-5.19,7.6-1.88.41-3.27.39-4.31.1-6.67-.55-12.88-1.32-18.66-2.25,9.28,11.63,22.98,19.5,38.77,20.74,30.74,2.42,57.67-21.18,60.15-52.71Zm-116.12-108.15l-3.36,15.77,6.19,1.87,3.51-16.02,13.24-5.2s20.63-.05,21.44-10.25c-6.56-.08-15.58,4.26-23.53,7.14-9.47,3.43-17.49,6.69-17.49,6.69Zm-219,75.38l3.79,1.83.54-1.51-3.36-1.93-.97,1.6Zm95.24-117.84l3.03,11.03,3.46,2.35,2.26-3.98,3.34-1.1,2.32,3.63,9.79,4.41,3.1.24.33-4.14,3.88.31.23-2.91-4.61-4.2-15.46-15,1.62-4.03c-8.45,1.68-7.76-7.11-7.76-7.11l-2.93,4.19-9.82-.77-2.24,8.66,6.08,2.04,3.4,6.38Zm183.43,156.38c-1.21-.1-2.27.81-2.37,2.02s.81,2.27,2.02,2.37,2.27-.81,2.37-2.02-.81-2.27-2.02-2.37Zm10.82-19.27c1.21.1,2.27-.81,2.37-2.02s-.81-2.27-2.02-2.37-2.27.81-2.37,2.02.81,2.27,2.02,2.37Zm4.24,13.74c-.1,1.21.81,2.27,2.02,2.37s2.27-.81,2.37-2.02-.81-2.27-2.02-2.37-2.27.81-2.37,2.02Zm-23.21-11.46c-.1,1.21.81,2.27,2.02,2.37s2.27-.81,2.37-2.02-.81-2.27-2.02-2.37-2.27.81-2.37,2.02Zm18.75,16.78c-1.21-.1-2.27.81-2.37,2.02s.81,2.27,2.02,2.37,2.27-.81,2.37-2.02-.81-2.27-2.02-2.37Zm-9.34-19.81c1.21.1,2.27-.81,2.37-2.02s-.81-2.27-2.02-2.37-2.27.81-2.37,2.02.81,2.27,2.02,2.37Zm15.51,7.77c1.21.1,2.27-.81,2.37-2.02s-.81-2.27-2.02-2.37-2.27.81-2.37,2.02.81,2.27,2.02,2.37Zm-23.13,6.29c-1.21-.1-2.27.81-2.37,2.02s.81,2.27,2.02,2.37,2.27-.81,2.37-2.02-.81-2.27-2.02-2.37Zm-92.23.28c-1.69-.13-3.17,1.13-3.3,2.82s1.13,3.17,2.82,3.3,3.17-1.13,3.3-2.82-1.13-3.17-2.82-3.3Zm9.84,6.93c.13-1.69-1.13-3.17-2.82-3.3s-3.17,1.13-3.3,2.82,1.13,3.17,2.82,3.3,3.17-1.13,3.3-2.82Zm-9.54-10.71c.13-1.69-1.13-3.17-2.82-3.3s-3.17,1.13-3.3,2.82,1.13,3.17,2.82,3.3,3.17-1.13,3.3-2.82Zm-101.32-19.51c-1.07-.45-2.94,2.2-4.63,2.67-2.01.56,0-9.88-2.14-4.78-2.18,5.22-2.61,6.75-2.61,6.75,0,0,3.81,6.65,3.17,10.39,4.26.34,3.07,1,6.87-3.1.9-.97-2.2-3.93-2.2-3.93,2.13-2.03,1.51-1.51,4.03-3.6.7-.58-1.49-3.98-2.49-4.4Zm107.78,23.83c1.57.12,2.94-1.05,3.07-2.62s-1.05-2.94-2.62-3.07-2.94,1.05-3.07,2.62,1.05,2.94,2.62,3.07Z"/>
  <text class="cls-5" transform="translate(163.13 561.64)"><tspan class="cls-6" x="0" y="0">T</tspan><tspan class="cls-10" x="39.6" y="0">r</tspan><tspan x="66.38" y="0">ail</tspan><tspan class="cls-7" x="147.07" y="0"> </tspan><tspan class="cls-6" x="161.75" y="0">T</tspan><tspan class="cls-10" x="201.35" y="0">r</tspan><tspan x="228.14" y="0">ac</tspan><tspan class="cls-8" x="305.63" y="0">k</tspan><tspan x="346.72" y="0">e</tspan><tspan class="cls-9" x="387.8" y="0">r</tspan></text>
</svg>