<?xml version="1.0" encoding="UTF-8"?>
<svg id="Layer_2" data-name="Layer 2" xmlns="http://www.w3.org/2000/svg" xmlns:xlink="http://www.w3.org/1999/xlink" viewBox="0 0 1280 640">
  <defs>
    <style>
      .cls-1 {
        letter-spacing: -.17em;
      }

      .cls-2, .cls-3 {
        fill: #fff;
      }

      .cls-4 {
        letter-spacing: 0em;
      }

      .cls-5 {
        clip-path: url(#clippath-2);
      }

      .cls-6 {
        clip-path: url(#clippath-1);
      }

      .cls-7 {
        letter-spacing: -.01em;
      }

      .cls-8 {
        fill: url(#radial-gradient);
      }

      .cls-9 {
        fill: #1b75bb;
      }

      .cls-10 {
        clip-path: url(#clippath);
      }

      .cls-11, .cls-12 {
        fill: none;
      }

      .cls-13 {
        letter-spacing: -.05em;
      }

      .cls-14 {
        letter-spacing: -.03em;
      }

      .cls-12 {
        stroke: #000;
        stroke-miterlimit: 10;
        stroke-width: 6.06px;
      }

      .cls-3 {
        font-family: CondorWide-BoldItalic, CondorWide;
        font-size: 55.59px;
        font-style: italic;
        font-weight: 700;
      }
    </style>
    <radialGradient id="radial-gradient" cx="640" cy="321.33" fx="640" fy="321.33" r="402.56" gradientTransform="translate(0 -2.68)" gradientUnits="userSpaceOnUse">
      <stop offset="0" stop-color="#fff"/>
      <stop offset="1" stop-color="#1b75bb"/>
    </radialGradient>
    <clipPath id="clippath">
      <rect class="cls-11" x="320" y="0" width="640" height="640"/>
    </clipPath>
    <clipPath id="clippath-1">
      <rect class="cls-11" x="320" y="0" width="640" height="640"/>
    </clipPath>
    <clipPath id="clippath-2">
      <path class="cls-11" d="m713.88,133.83l-87.88,287.66h-130.76l-9.43,28.72h369.54l9-28.72h-130.75l87.88-287.66h-107.6Zm-262.02-47.07l-9,28.72h130.76l-87.88,287.66h107.6l87.88-287.66h130.76l9.43-28.72h-369.54Z"/>
    </clipPath>
  </defs>
  <g id="Layer_1-2" data-name="Layer 1">
    <g id="Artwork_1" data-name="Artwork 1">
      <rect class="cls-8" y="0" width="1280" height="640"/>
      <g id="Artwork_2" data-name="Artwork 2">
        <g class="cls-10">
          <g class="cls-6">
            <path class="cls-2" d="m956.97,320c0,175.06-141.91,316.97-316.97,316.97s-316.97-141.91-316.97-316.97S464.94,3.03,640,3.03s316.97,141.91,316.97,316.97"/>
            <circle class="cls-12" cx="640" cy="320" r="316.97"/>
            <path class="cls-9" d="m956.97,320c0,175.06-141.91,316.97-316.97,316.97s-316.97-141.91-316.97-316.97S464.94,3.03,640,3.03s316.97,141.91,316.97,316.97"/>
            <circle class="cls-12" cx="640" cy="320" r="316.97"/>
            <path class="cls-2" d="m451.86,86.76h369.54l-9.43,28.72h-130.75l-87.88,287.66h-107.6l87.88-287.66h-130.75l9-28.72Zm403.49,363.45h-369.54l9.43-28.72h130.75l87.88-287.66h107.6l-87.88,287.66h130.75l-9,28.72Z"/>
          </g>
          <g class="cls-5">
            <path d="m607.33,99.07c5.31-.63,10.79-2.62,15.11-4.03.25-3.13,1.7-8.28,3.96-10.2,1.29-3.05,5.72-5.86,8.05-8.83,6.6-3.69,21.14-1.49,27.08,3.18,5.06,2.5,14.6,14.82,7.92,19.55l6.77,5c-5.7-1.11-9.39,1.63-9.39,1.63,0,0-1.31,1.67,2.15,3.85-5.24,2.04-5.39,1.68-9.51-1.62-1.46,5.14-7.42,5.2-10.77,1.08,2.56,7.56-4.45,16.47-10.97,19.11-13.03,5.28-5.61-8.85-15.81-12.81,1.29-3.05.41-5.22.58-7.31-7.3.87-16.79-1.36-15.17-8.59m53.53,42.1l-.08,1.04c-1.13.96-1.21,2.01-1.29,3.05l.88,2.17c6.35-.55,10.86-4.4,16.96-1.82,6.1,2.58,7.45,12.15,12.76,11.52.25-3.13,5.19-28.04,4.52-19.62-.13,1.68-.69,17.69-2.06,21.78,13.4,4.02,26.17,9.59,41.34,12.32-1.84-3.3-3.22-9.19-5.14-11.44-4.48-9.81-11.41-16.93-18.32-22.73-6.82-6.85-11.44-13.25-18.34-19.05-20.07-12.09-29.91,6.06-31.23,22.77m-77.22,72.77c4.01,2.42,9.32,1.78,14.55,2.2.84-1.97,1.32-5.41,2.44-7.74.93-.46,1.67-1.26,2.07-2.24.16-.06.32-.11.5-.14,1.46-.23,1.93,2.25,1.76,4.34,5.31-.63,5.72-5.86,9.02-7.7,2.34-2.97,5.63-4.81,8.93-6.66,7.64-3.6,16.25-6.08,23.81-8.64,7.56-2.56,17.21-4.95,24.85-8.56,5.47-2.72,12.01-19.03,15.15-18.78,0,0-5.35-11.18-9.84-13.04-4.48-1.86-7.56.28-16.64,2.2-2.34,2.97-3.9,9.5-5.28,13.6-7.4.47-16.41,8.17-21.97,11.94-6.68,4.73-14.4,9.38-18.91,13.23-4.98-3.55-8.36-.66-13.75,1.02-.08,1.05.96,1.13.88,2.17-6.6,3.69-13.28,8.42-18.91,13.23,1.93,2.25,2.64,6.52,1.35,9.57m47.62-17.28l-1.54,6.19c-2.34,2.97-8.35,1.45-10.69,4.42-6.6,3.69-11.53,10.66-18.12,14.34-1.84-3.3-6.72-1.49-10.1,1.4,3.93,3.46,7.17,6.52,11.07,10.51,10.02-4.82,23.5-8.93,34.36-13.33,7.64-3.6,6.4-7.91,10.03-13.93,3.63-6.02,10.52-13.45,11.01-19.72-6.54,2.9-23.45,4.02-26.03,10.13m42.21-88.8c-3.29,3.42-21.08,7.41-21.08,7.41.72,4.26-1.62,7.23-4.04,11.25-8.31,8.72-13.2,7.37-14.57,11.47-1.21,2.01,6.13,4.91,7.17,9.11,1.9,7.64,1.15,12.05-7.89,18.43,13.5,2.11,21.59-12.23,23.46-22.6.58-7.31,2.93-19.79,9.33-25.02,4.54-3.72,10.07-6.57,16.58-5.79.53-.12-3.34-3.3-3.34-3.81.04-2.19-.6-3.14-1.67-3.07-.99.06-2.36.99-3.94,2.63m11.41,58.76s53.23,12.69,57.15,16.32c2.44-2-.79-5.58-.79-5.58l-52.68-16.32-3.68,5.58Zm-1.14,2.28c-2.56.91-2.66,5.44-4.77,7.25-6.76,5.78-8.78,6.93-18.35,8.28-.25,3.13,1,2.88,1,2.88,1.05.08,8.76,5.6,8.76,5.6,1.5,4.82,8.54,15.49,12.11,20.93,0,0,0,0,0,0l1.07,1.63s.04.06.05.08h0s2.81,1.66,2.81,1.66c0,0,34.96-14.06,55.2-14.01-3.4,1.23-6.75,2.77-9.17,3.52-8.51,3.45-27.4,7.53-37.4,9.73-.03,0-.05-.01-.07-.02l-.55.16-8.01,2.28c-8.93,6.66-27.76,18.47-34.74,25.65,12.37,3.08,27.19,27.93,26.25,35.44-.09.75,2.11,2.58,2.68,2.34,9.98-4.19,16.61-8.2,26.88-12.37,9.73-3.44,20.95-7.99,30.6-10.38,11.82-3.27,16.75-4.82,17.83-19.45.26-3.52.77-7.4.76-10.98.62-7.82.17-16.89-1.34-22.37.2-3.97-10.88-21.34-10.88-21.34-14.46-3.24-38.06-10.69-51.48-13.85-3.81-.8-7.71-3.21-9.25-2.67m-70.36,212.96c-3.38,42.9-40.89,74.95-83.8,71.57-42.9-3.38-74.95-40.9-71.57-83.8,3.38-42.9,40.89-74.95,83.8-71.57,8.15.64,15.91,2.52,23.11,5.43l10.35-26.61,8.01,5.1-10.57,25.19c26.29,14.21,43.16,42.97,40.66,74.68m-16.2-1.27c1.93-24.54-10.78-46.84-30.79-58.34l-18.06,43.05c2.63,3.17,4.08,7.32,3.73,11.74-.71,9.03-8.63,15.79-17.66,15.08-9.03-.71-15.79-8.63-15.08-17.66.71-9.03,8.63-15.79,17.66-15.08,2.01.16,3.89.69,5.62,1.49l16.43-42.23c-5.76-2.35-11.96-3.87-18.49-4.39-33.96-2.67-63.66,22.69-66.33,56.65-2.67,33.96,22.69,63.66,56.65,66.33,33.96,2.67,63.66-22.69,66.33-56.65m-55.04,3.45c-.03.37-.13.71-.29,1.02,1.56-1.03,2.85-2.44,3.74-4.11-.49.32-1.07.49-1.69.44-1.32-.1-2.35-1.13-2.51-2.4-.48.83-1.12,1.55-1.89,2.09.04,0,.08,0,.12,0,1.51.12,2.65,1.45,2.53,2.96m-6.04-16.8c.09-1.16.89-2.09,1.94-2.41-.48-.1-.97-.19-1.47-.23-1.02-.08-2.02,0-2.98.18,1.14.41,1.93,1.53,1.83,2.8-.05.68-.36,1.27-.8,1.72.52-.09,1.05-.12,1.59-.08.2.02.41.04.6.08-.49-.54-.77-1.27-.71-2.06m-3.68,19.2c.77.23,1.56.39,2.39.46,1.36.11,2.69-.05,3.93-.4-1.29-.31-2.2-1.52-2.09-2.88.04-.57.26-1.08.6-1.5-.66.16-1.35.22-2.07.17-.4-.03-.79-.11-1.17-.21.41.52.64,1.19.58,1.9-.1,1.24-1.01,2.21-2.16,2.46m8.69-14.36c.13-1.5,1.45-2.62,2.95-2.5.43.03.82.17,1.17.38-.99-1.63-2.38-2.98-4.05-3.93.29.48.45,1.05.4,1.65-.11,1.34-1.16,2.37-2.44,2.52.78.49,1.45,1.13,1.97,1.89m5.58,5.66c.06-.36.11-.73.14-1.1.1-1.26-.03-2.49-.33-3.66-.32,1.29-1.52,2.2-2.88,2.09-.58-.05-1.1-.27-1.52-.62.12.59.16,1.2.12,1.82-.01.15-.04.3-.06.45.55-.55,1.32-.88,2.16-.81,1.11.09,2.02.83,2.37,1.83m-17.59,5.81c.11-1.43,1.31-2.51,2.72-2.52-.72-.53-1.33-1.2-1.78-1.97-.15,1.48-1.46,2.58-2.95,2.46-.44-.03-.84-.18-1.19-.4.84,1.54,2.04,2.85,3.48,3.85-.21-.43-.32-.91-.28-1.42m.83-16.39c.04-.44.18-.84.4-1.19-1.41.78-2.64,1.85-3.6,3.15.42-.19.88-.3,1.37-.26,1.45.11,2.54,1.34,2.52,2.78.5-.61,1.1-1.13,1.78-1.52-1.48-.15-2.58-1.46-2.46-2.95m-4.77,4.88c-.32.9-.54,1.85-.62,2.85-.08,1.02,0,2.02.18,2.98.41-1.14,1.53-1.93,2.8-1.83.68.05,1.27.36,1.72.8-.09-.52-.12-1.05-.08-1.59.04-.48.13-.95.27-1.4-.5.35-1.12.54-1.77.49-1.29-.1-2.29-1.08-2.49-2.3m308.33,12.73c-3.17,40.26-37.55,70.4-76.8,67.31-25.97-2.04-47.55-18.13-58.27-40.44-18.74-4.97-30.63-11.16-36.1-14.45l.09-.16c-6.44-2.97-10.78-8.98-10.83-15.69l-16.36-1.29.45-5.75,16.94,1.33c.19-.51.41-1.01.66-1.5-6.01-.29-11.91-.45-18.22-.8-4.55-.25-13.77-3.25-15.61-5.35-2.83-3.22,3.7-5.22,11.61-6.7,5.15-.96,6.25-3.19,11.64-4.87l1.55-4.17c-1.05-.08-2.01-1.21-3.05-1.29,3.13.25,4.34-1.76,6.52-2.64.08-1.05-.88-2.17-.8-3.22,2.09.16,5.22.41,7.31.58.29-3.72-.63-5.31-.39-8.44.08-1.04-.51-1.09-.42-2.14l.59.05c6.79.53,15.65,1.56,17.08,1.67,1.44.11-1.01,7.87.75,12.21,5.1,1.44,6.09,2.52,6.81,6.69l2.36-8.99-1.35-3.52,3.17-3.44,1.11-4.22-5.21,6.09-6.22-7.85c-2.6-7.04.57-27.29.57-27.29l12.94,21.09,4.67-17.8s-7.6-3.79-18.22-9.08c-1,10.78-2.51,12.83-2.38,23.77l.8,9.87c-8.17-1.33-14.12-.32-17.71-2.05-.29-3.05-2.18-7.43-3.24-12.21-2.31-10.69-6.8-17.09-9.19-30.16-.35-1.9-.8-3.77-1.29-5.62-.54-.27-1.07-.53-1.61-.79.55,2.19.98,4.35,1.17,6.19.72,7.26,7.18,24.57,7.18,24.57,0,0-17.61-16.72-18.15-18.69-.55-1.97-6.41-6.79-5.66-9.99.33-1.38,2.51-4.37,4.88-7.31-11.07-5.46-19.45-9.54-20.55-9.95-3.57-1.33-3.56,1.82-3.56,1.82l49.43,69.86-7.77,5.17-50.17-70.44s-2.02-1.03-2.92,1.52c-.9,2.56-2.53,5.41-2.53,5.41l-16.92-9.92,14.7-26.53,15.02,7.31-1.08,2.54,32.67,15.79c.13-.15.21-.23.21-.23,0,0,.06.15.15.41l1.92.93c-2.83-10.77-2.77-19.89,13.56-25.51,11.82,6.05,17.4,15.27,24.52,27.63.19.32-.1.93-.44.9-2.92-.23-6.29-.49-9.1-.72,1.35,7.13,4.05,10.36,5.99,14.39l22.34,10.8,1.48-7.68,9.83,1.96-10.18,40.89c2.59,2.16,5.79,4.92,6.74,6.1.24.29.51.58.81.86,3.28-5.57,7.26-10.64,11.8-15.1-7.17-9.9-12.32-17.23-12.32-17.23l3.46-6.08c2.61,2.09,9.17,8.58,16.92,16.47,13.17-9.61,29.55-14.74,46.89-13.38,39.25,3.09,68.5,38.23,65.33,78.49m-124.04-70.67c.75,1.35,3.35,4.84,6.94,9.45.43-.37.87-.73,1.31-1.09-4.14-4.36-7.23-7.53-8.24-8.35m41.68,62.29l5.33.26c1.33-4.75,5.87-8.06,10.98-7.66,5.81.46,10.14,5.53,9.69,11.34-.46,5.81-5.53,10.14-11.34,9.69-4.64-.36-8.33-3.68-9.4-7.96l-5.36-.05c1.13,7.03,6.94,12.67,14.34,13.25,8.68.68,16.3-5.83,16.99-14.51.68-8.68-5.83-16.3-14.51-16.99-8.04-.63-15.17,4.91-16.72,12.63m-10.76,32.48c1.92.15,3.39-.78,3.82-6.18.42-5.4,3.11-3.96,7.56-6.94.31-.21.63-.37.96-.5-3.8-3.37-6.37-8.06-6.98-13.29l-39.68-.4c.41,11.85,4.35,22.88,10.83,31.94,5.63.96,11.7,1.78,18.22,2.38-.43-1.38-.14-3,.22-3.99.77-2.05,3.14-3.17,5.06-3.02m-34.13-34.69s0,.01,0,.02l39.62,1.94c.29-1.8.81-3.5,1.52-5.11-.73-.84-1.49-1.73-2.27-2.67l-33.27-2.15c-1.06,1.34-2.18,2.91-3.31,4.8-.62,1.04-1.4,2.1-2.29,3.17m48.35-11.92c-3.42-3.74-15.65-17.07-26.57-28.81-.78.61-1.53,1.25-2.28,1.91,9.23,11.52,19.85,24.49,24.84,30.56,1.18-1.39,2.52-2.63,4-3.67m-40.03-13.52c3.88,1.87,6.95,3.72,6.78,5.89-.29,3.65-3.49,4.83-7.81,9.59l29.74,1.93c-6.33-7.72-14-17.82-21.06-27.38-2.88,3.01-5.45,6.36-7.64,9.97m-38.35,15.99c2.98.77,5.66,2.15,7.88,3.97l1.21-3.63-3.13-.25.36-3.15-4.96-1.81,1.05-4c-2.5,1.76-2.67,5.37-2.4,8.87m-6.15,30.02c2.02.16,3.98-.04,5.79-.52l-1.19-.87,1.15-2.53c-1.21-.5-2.02-1.72-1.91-3.1.13-1.71,1.63-2.98,3.33-2.85.41.03.8.15,1.15.32l.72-1.58,2.12-6.37c-.62.81-1.62,1.31-2.71,1.23-1.71-.13-2.98-1.63-2.85-3.33.13-1.71,1.63-2.98,3.33-2.85,1.63.13,2.85,1.5,2.84,3.11l.8-2.41c-1.61-1.63-3.65-2.93-5.99-3.76.19,2.16.16,3.79-.82,4.15-.8.29-1.61.51-2.42.71-.47,1.27-1.72,2.13-3.14,2.01-.95-.07-1.75-.57-2.26-1.29-.85.04-1.7.05-2.53.03-.58,1.01-1.69,1.66-2.93,1.56-1.2-.1-2.17-.86-2.6-1.9-.66-.04-1.32-.09-1.97-.13-1.23,1.73-2.01,3.74-2.19,5.92-.57,7.3,5.82,13.77,14.26,14.44m27.22,14.41c-3-6.88-4.96-14.31-5.75-22.06-.9.65-1.78,1.28-2.65,1.88-3.25,6.37-10.68,10.54-18.98,9.95,6.16,3.08,15.25,6.89,27.38,10.22m121.4-25.56c2.51-31.87-20.64-59.68-51.71-62.13-12.83-1.01-24.99,2.47-35.03,9.14,12.46,12.89,24.86,25.99,27.74,29.04.58-.2,1.18-.38,1.78-.53l.43-5.51,3.66.29-.21,2.61,1.52-.1s-.15-6.79,2.49-6.55c2.82.26,1.44,9.02,1.59,9.05,10.2,2.13,17.49,11.58,16.65,22.24-.91,11.56-11.06,20.23-22.62,19.32-.27-.02-.53-.07-.79-.1-2.29,1.01-6.83,2.06-11.01,2.36-8.81.62-2.53,7.99-5.99,7.68s.97,6.33-5.25,7.68c-1.9.41-3.31.39-4.36.1-6.74-.55-13.02-1.33-18.86-2.28,9.38,11.75,23.23,19.71,39.18,20.96,31.07,2.44,58.28-21.41,60.79-53.28m-117.36-109.31l-3.39,15.94,6.25,1.89,3.55-16.19,13.38-5.26s20.85-.05,21.67-10.36c-6.63-.08-15.75,4.31-23.78,7.22-9.57,3.47-17.67,6.76-17.67,6.76m-221.34,76.19l3.83,1.85.54-1.52-3.4-1.95-.98,1.62Zm96.26-119.11l3.07,11.15,3.49,2.38,2.29-4.03,3.37-1.11,2.34,3.66,9.9,4.46,3.13.25.33-4.18,3.92.31.23-2.94-4.66-4.24-15.63-15.16,1.64-4.08c-8.54,1.69-7.85-7.19-7.85-7.19l-2.96,4.23-9.93-.78-2.27,8.76,6.15,2.06,3.43,6.45Zm185.39,158.06c-1.23-.1-2.3.82-2.4,2.05-.1,1.23.82,2.3,2.05,2.4,1.23.1,2.3-.82,2.4-2.05.1-1.23-.82-2.3-2.05-2.4m10.94-19.47c1.23.1,2.3-.82,2.39-2.05.1-1.23-.82-2.3-2.04-2.39-1.23-.1-2.3.82-2.4,2.05-.1,1.23.82,2.3,2.05,2.39m4.28,13.89c-.1,1.23.82,2.3,2.05,2.4,1.23.1,2.3-.82,2.4-2.05.1-1.23-.82-2.3-2.05-2.4-1.23-.1-2.3.82-2.4,2.05m-23.46-11.58c-.1,1.23.82,2.3,2.04,2.39,1.23.1,2.3-.82,2.4-2.05.1-1.23-.82-2.3-2.05-2.39-1.23-.1-2.3.82-2.39,2.05m18.95,16.96c-1.23-.1-2.3.82-2.4,2.05-.1,1.23.82,2.3,2.05,2.39,1.23.1,2.3-.82,2.4-2.04.1-1.23-.82-2.3-2.05-2.4m-9.44-20.02c1.23.1,2.3-.82,2.39-2.05.1-1.23-.82-2.3-2.05-2.4-1.23-.1-2.3.82-2.39,2.05-.1,1.23.82,2.3,2.05,2.4m15.68,7.85c1.23.1,2.3-.82,2.4-2.05.1-1.23-.82-2.3-2.05-2.39-1.23-.1-2.3.82-2.4,2.05-.1,1.23.82,2.3,2.05,2.39m-23.38,6.36c-1.23-.1-2.3.82-2.39,2.05-.1,1.23.82,2.3,2.04,2.39,1.23.1,2.3-.82,2.4-2.04.1-1.23-.82-2.3-2.05-2.4m-93.22.28c-1.71-.13-3.2,1.14-3.33,2.85-.13,1.71,1.14,3.2,2.85,3.33,1.71.13,3.2-1.14,3.33-2.85.13-1.71-1.14-3.2-2.85-3.33m9.94,7c.13-1.71-1.14-3.2-2.85-3.33s-3.2,1.14-3.33,2.85,1.14,3.2,2.85,3.33c1.71.13,3.2-1.14,3.33-2.85m-9.64-10.82c.13-1.71-1.14-3.2-2.85-3.33-1.71-.13-3.2,1.14-3.33,2.85-.13,1.71,1.14,3.2,2.85,3.33,1.71.13,3.2-1.14,3.33-2.85m-102.41-19.72c-1.08-.46-2.97,2.22-4.68,2.7-2.03.57,0-9.99-2.16-4.83-2.21,5.28-2.64,6.82-2.64,6.82,0,0,3.85,6.72,3.2,10.5,4.31.34,3.11,1.01,6.95-3.13.91-.98-2.23-3.97-2.23-3.97,2.16-2.05,1.53-1.52,4.08-3.63.71-.59-1.5-4.02-2.52-4.45m108.93,24.08c1.59.13,2.97-1.06,3.1-2.65.12-1.59-1.06-2.97-2.65-3.1-1.59-.12-2.97,1.06-3.1,2.65-.13,1.59,1.06,2.97,2.65,3.1"/>
          </g>
          <text class="cls-3" transform="translate(443.1 525.88)"><tspan class="cls-1" x="0" y="0">T</tspan><tspan class="cls-13" x="40.08" y="0">r</tspan><tspan class="cls-4" x="67.21" y="0">ail</tspan><tspan class="cls-7" x="148.75" y="0"> </tspan><tspan class="cls-1" x="163.65" y="0">T</tspan><tspan class="cls-13" x="203.73" y="0">r</tspan><tspan x="230.86" y="0">ac</tspan><tspan class="cls-14" x="309.18" y="0">k</tspan><tspan x="350.76" y="0">er</tspan></text>
        </g>
      </g>
    </g>
  </g>
</svg>